<?xml version="1.0" encoding="UTF-8" ?>
<!DOCTYPE svg PUBLIC "-//W3C//DTD SVG 1.1//EN" "http://www.w3.org/Graphics/SVG/1.1/DTD/svg11.dtd">
<svg width="521pt" height="521pt" viewBox="0 0 521 521" version="1.1" xmlns="http://www.w3.org/2000/svg">
<g id="#858585ff">
<path fill="#858585" opacity="1.00" d=" M 36.58 3.52 C 39.02 2.97 41.56 3.29 44.04 3.22 C 90.87 3.25 137.70 3.23 184.53 3.23 C 184.99 3.66 185.91 4.53 186.37 4.96 C 186.28 8.27 185.87 12.05 189.10 14.07 C 189.58 12.90 190.06 11.72 190.56 10.55 C 236.38 10.74 282.19 10.08 328.01 10.37 C 329.06 10.43 330.11 10.50 331.16 10.58 C 331.34 11.42 331.71 13.08 331.89 13.91 C 335.72 11.25 333.01 6.14 335.97 3.05 C 384.66 3.12 433.35 3.06 482.04 3.08 C 483.94 2.75 486.19 3.87 485.89 6.08 C 486.00 17.31 485.87 28.55 485.94 39.78 C 483.60 42.17 480.75 43.93 477.83 45.50 C 477.70 104.68 478.15 163.85 477.84 223.03 C 478.00 253.70 477.75 284.38 477.84 315.05 C 478.08 368.14 477.82 421.23 477.81 474.32 C 480.74 475.96 483.54 477.84 485.94 480.22 C 485.87 491.48 486.01 502.74 485.88 514.00 C 486.09 515.69 484.54 517.12 482.88 516.89 C 433.93 516.99 384.96 516.85 336.01 516.96 C 333.14 514.00 335.42 509.31 332.50 506.32 C 331.31 507.83 330.38 510.16 328.02 509.66 C 282.71 509.60 237.40 509.93 192.09 509.78 C 189.96 510.21 189.47 507.72 188.36 506.50 C 185.86 509.63 187.96 514.17 185.06 517.04 C 136.04 516.83 87.03 517.05 38.01 516.93 C 36.36 517.19 34.81 515.75 35.08 514.07 C 34.92 502.76 35.20 491.44 34.95 480.13 C 37.16 477.57 40.10 475.90 43.08 474.41 C 43.11 422.93 42.98 371.46 43.08 319.99 C 42.89 271.63 43.51 223.29 43.40 174.93 C 39.27 174.89 40.59 170.47 40.66 167.73 C 41.35 167.72 42.74 167.70 43.43 167.68 C 43.36 161.58 43.36 155.48 43.44 149.38 C 42.73 149.36 41.31 149.30 40.61 149.27 C 40.50 147.06 40.49 144.85 40.59 142.65 C 41.30 142.62 42.72 142.56 43.43 142.54 C 43.35 110.20 43.37 77.86 43.43 45.52 C 40.51 43.83 37.61 42.05 35.21 39.65 C 35.25 29.10 35.24 18.54 35.20 7.98 C 35.29 6.43 34.94 4.41 36.58 3.52 M 43.21 13.23 C 42.94 14.62 42.66 16.00 42.35 17.37 C 43.92 20.51 46.60 23.10 50.06 23.98 C 52.73 23.40 54.80 21.51 56.78 19.75 C 57.09 18.42 57.41 17.10 57.76 15.78 C 56.17 12.61 53.51 9.95 50.00 9.03 C 47.30 9.54 45.22 11.50 43.21 13.23 M 463.23 15.79 C 463.58 17.10 463.91 18.42 464.22 19.74 C 466.20 21.51 468.27 23.42 470.96 23.98 C 474.41 23.09 477.09 20.51 478.65 17.37 C 478.33 16.00 478.05 14.63 477.80 13.25 C 475.78 11.51 473.70 9.53 470.98 9.03 C 467.48 9.96 464.82 12.62 463.23 15.79 M 72.12 11.93 L 75.68 13.30 C 74.48 13.69 72.10 14.49 70.91 14.88 C 70.55 15.92 70.21 16.96 69.86 18.00 C 71.14 19.25 72.40 20.51 73.69 21.75 C 75.05 21.06 76.47 20.44 77.73 19.57 C 78.86 17.90 78.24 15.78 78.20 13.91 L 76.13 15.79 L 74.02 12.43 L 76.97 12.05 C 75.35 12.02 73.74 11.99 72.12 11.93 M 444.15 12.89 L 446.38 15.00 L 442.92 14.72 C 441.11 18.21 444.21 20.88 447.31 21.75 C 448.57 20.53 449.82 19.29 451.07 18.06 C 450.43 16.40 450.71 13.21 447.82 14.81 C 450.12 11.99 445.61 11.59 444.15 12.89 M 223.31 17.83 C 222.40 19.30 221.22 20.72 220.96 22.49 C 221.43 24.54 223.29 26.00 225.20 26.68 C 227.62 26.39 229.47 24.43 230.05 22.12 C 229.48 20.66 228.66 19.32 227.90 17.95 L 227.39 19.33 C 226.06 18.75 224.70 18.25 223.31 17.83 M 293.05 18.03 C 292.38 19.77 290.13 21.59 291.50 23.49 C 292.27 25.40 294.38 26.08 295.97 27.13 C 297.47 25.77 298.93 24.35 300.35 22.90 C 300.22 22.31 299.97 21.12 299.84 20.53 L 297.81 24.89 C 297.74 23.04 297.61 19.36 297.54 17.52 C 296.89 18.17 295.60 19.49 294.96 20.15 C 294.48 19.62 293.52 18.56 293.05 18.03 M 45.69 30.00 C 45.59 88.00 45.83 146.00 45.69 204.00 C 45.62 299.31 45.84 394.63 45.57 489.95 C 94.28 490.02 142.98 490.07 191.69 489.92 C 194.15 487.41 197.28 485.44 200.95 485.76 C 240.63 485.73 280.31 485.74 319.99 485.76 C 323.68 485.43 326.83 487.39 329.32 489.92 C 378.03 490.05 426.75 490.05 475.46 489.93 C 475.19 447.96 475.37 406.00 475.32 364.03 C 475.30 252.69 475.35 141.34 475.30 30.00 C 426.64 30.05 377.98 29.89 329.32 30.08 C 326.85 32.60 323.69 34.55 320.01 34.24 C 280.32 34.27 240.63 34.28 200.95 34.24 C 197.27 34.56 194.15 32.57 191.66 30.07 C 143.01 29.90 94.35 30.05 45.69 30.00 M 42.43 144.87 C 41.10 146.17 43.15 148.64 44.51 147.11 C 45.86 145.82 43.78 143.28 42.43 144.87 M 42.36 170.30 C 41.24 171.68 43.54 173.65 44.58 172.04 C 45.71 170.64 43.39 168.68 42.36 170.30 M 220.81 499.65 C 221.22 498.75 222.06 496.95 222.47 496.06 L 224.56 500.70 L 222.46 502.10 C 223.74 501.45 225.05 500.83 226.37 500.25 C 226.76 500.68 227.55 501.53 227.95 501.95 C 228.62 500.24 230.82 498.49 229.54 496.60 C 228.85 494.75 227.01 493.58 225.12 493.31 C 222.38 494.19 220.67 496.79 220.81 499.65 M 291.52 496.48 C 290.12 498.39 292.35 500.21 293.04 501.96 C 293.45 501.51 294.26 500.63 294.67 500.19 C 295.94 500.88 297.23 501.54 298.54 502.16 L 296.52 500.66 L 298.54 495.92 C 298.94 496.87 299.75 498.76 300.16 499.70 C 300.56 496.56 298.12 494.63 295.97 492.87 C 294.39 493.91 292.29 494.58 291.52 496.48 M 42.35 502.62 C 42.66 503.99 42.94 505.37 43.20 506.76 C 45.21 508.49 47.28 510.42 49.97 510.98 C 53.49 510.07 56.17 507.39 57.77 504.21 C 57.41 502.89 57.08 501.57 56.78 500.24 C 54.78 498.49 52.71 496.55 50.01 496.02 C 46.57 496.92 43.92 499.50 42.35 502.62 M 464.22 500.25 C 463.91 501.57 463.58 502.89 463.24 504.21 C 464.84 507.41 467.54 510.11 471.10 510.99 C 473.74 510.36 475.81 508.49 477.80 506.76 C 478.05 505.36 478.33 503.98 478.65 502.61 C 477.06 499.48 474.38 496.87 470.91 496.02 C 468.25 496.62 466.19 498.50 464.22 500.25 M 70.07 501.86 C 70.27 502.96 70.48 504.06 70.69 505.16 C 72.03 506.35 73.32 507.60 74.82 508.60 C 76.10 507.15 77.42 505.75 78.77 504.38 C 78.47 503.04 78.22 501.69 77.72 500.41 C 76.45 499.54 75.04 498.92 73.67 498.24 C 72.46 499.43 71.26 500.64 70.07 501.86 M 443.30 500.41 C 442.76 501.73 442.49 503.15 442.16 504.55 C 443.22 505.58 444.26 506.66 445.39 507.65 C 446.80 508.62 449.97 507.01 447.83 505.17 C 450.73 507.07 450.29 503.38 451.13 502.00 C 449.84 500.76 448.61 499.46 447.31 498.25 C 445.95 498.93 444.55 499.53 443.30 500.41 Z" />
</g>
<g id="#ffffffff">
<path fill="#ffffff" opacity="1.00" d=" M 43.21 13.23 C 45.22 11.50 47.30 9.54 50.00 9.03 C 53.51 9.95 56.17 12.61 57.76 15.78 C 57.41 17.10 57.09 18.42 56.78 19.75 C 54.80 21.51 52.73 23.40 50.06 23.98 C 46.60 23.10 43.92 20.51 42.35 17.37 C 42.66 16.00 42.94 14.62 43.21 13.23 Z" />
<path fill="#ffffff" opacity="1.00" d=" M 463.23 15.79 C 464.82 12.62 467.48 9.96 470.98 9.03 C 473.70 9.53 475.78 11.51 477.80 13.25 C 478.05 14.63 478.33 16.00 478.65 17.37 C 477.09 20.51 474.41 23.09 470.96 23.98 C 468.27 23.42 466.20 21.51 464.22 19.74 C 463.91 18.42 463.58 17.10 463.23 15.79 Z" />
<path fill="#ffffff" opacity="1.00" d=" M 72.12 11.93 C 73.74 11.99 75.35 12.02 76.97 12.05 L 74.02 12.43 L 76.13 15.79 L 78.20 13.91 C 78.24 15.78 78.86 17.90 77.73 19.57 C 76.47 20.44 75.05 21.06 73.69 21.75 C 72.40 20.51 71.14 19.25 69.86 18.00 C 70.21 16.96 70.55 15.92 70.91 14.88 C 72.10 14.49 74.48 13.69 75.68 13.30 L 72.12 11.93 Z" />
<path fill="#ffffff" opacity="1.00" d=" M 444.15 12.89 C 445.61 11.59 450.12 11.99 447.82 14.81 C 450.71 13.21 450.43 16.40 451.07 18.06 C 449.82 19.29 448.57 20.53 447.31 21.75 C 444.21 20.88 441.11 18.21 442.92 14.72 L 446.38 15.00 L 444.15 12.89 Z" />
<path fill="#ffffff" opacity="1.00" d=" M 223.31 17.83 C 224.70 18.25 226.06 18.75 227.39 19.33 L 227.90 17.95 C 228.66 19.32 229.48 20.66 230.05 22.12 C 229.47 24.43 227.62 26.39 225.20 26.68 C 223.29 26.00 221.43 24.54 220.96 22.49 C 221.22 20.72 222.40 19.30 223.31 17.83 Z" />
<path fill="#ffffff" opacity="1.00" d=" M 293.05 18.03 C 293.52 18.56 294.48 19.62 294.96 20.15 C 295.60 19.49 296.89 18.17 297.54 17.52 C 297.61 19.36 297.74 23.04 297.81 24.89 L 299.84 20.53 C 299.97 21.12 300.22 22.31 300.35 22.90 C 298.93 24.35 297.47 25.77 295.97 27.13 C 294.38 26.08 292.27 25.40 291.50 23.49 C 290.13 21.59 292.38 19.77 293.05 18.03 Z" />
<path fill="#ffffff" opacity="1.00" d=" M 42.43 144.87 C 43.78 143.28 45.86 145.82 44.51 147.11 C 43.15 148.64 41.10 146.17 42.43 144.87 Z" />
<path fill="#ffffff" opacity="1.00" d=" M 42.36 170.30 C 43.39 168.68 45.71 170.64 44.58 172.04 C 43.54 173.65 41.24 171.68 42.36 170.30 Z" />
<path fill="#ffffff" opacity="1.00" d=" M 220.81 499.65 C 220.67 496.79 222.38 494.19 225.12 493.31 C 227.01 493.58 228.85 494.75 229.54 496.60 C 230.82 498.49 228.62 500.24 227.95 501.95 C 227.55 501.53 226.76 500.68 226.37 500.25 C 225.05 500.83 223.74 501.45 222.46 502.10 L 224.56 500.70 L 222.47 496.06 C 222.06 496.95 221.22 498.75 220.81 499.65 Z" />
<path fill="#ffffff" opacity="1.00" d=" M 291.52 496.48 C 292.29 494.58 294.39 493.91 295.97 492.87 C 298.12 494.63 300.56 496.56 300.16 499.70 C 299.75 498.76 298.94 496.87 298.54 495.92 L 296.52 500.66 L 298.54 502.16 C 297.23 501.54 295.94 500.88 294.67 500.19 C 294.26 500.63 293.45 501.51 293.04 501.96 C 292.35 500.21 290.12 498.39 291.52 496.48 Z" />
<path fill="#ffffff" opacity="1.00" d=" M 42.35 502.62 C 43.92 499.50 46.57 496.92 50.01 496.02 C 52.71 496.55 54.78 498.49 56.78 500.24 C 57.08 501.57 57.41 502.89 57.77 504.21 C 56.17 507.39 53.49 510.07 49.97 510.98 C 47.28 510.42 45.21 508.49 43.20 506.76 C 42.94 505.37 42.66 503.99 42.35 502.62 Z" />
<path fill="#ffffff" opacity="1.00" d=" M 464.22 500.25 C 466.19 498.50 468.25 496.62 470.91 496.02 C 474.38 496.87 477.06 499.48 478.65 502.61 C 478.33 503.98 478.05 505.36 477.80 506.76 C 475.81 508.49 473.74 510.36 471.10 510.99 C 467.54 510.11 464.84 507.41 463.24 504.21 C 463.58 502.89 463.91 501.57 464.22 500.25 Z" />
<path fill="#ffffff" opacity="1.00" d=" M 70.07 501.86 C 71.26 500.64 72.46 499.43 73.67 498.24 C 75.04 498.92 76.45 499.54 77.72 500.41 C 78.22 501.69 78.47 503.04 78.77 504.38 C 77.42 505.75 76.10 507.15 74.82 508.60 C 73.32 507.60 72.03 506.35 70.69 505.16 C 70.48 504.06 70.27 502.96 70.07 501.86 Z" />
<path fill="#ffffff" opacity="1.00" d=" M 443.30 500.41 C 444.55 499.53 445.95 498.93 447.31 498.25 C 448.61 499.46 449.84 500.76 451.13 502.00 C 450.29 503.38 450.73 507.07 447.83 505.17 C 449.97 507.01 446.80 508.62 445.39 507.65 C 444.26 506.66 443.22 505.58 442.16 504.55 C 442.49 503.15 442.76 501.73 443.30 500.41 Z" />
</g>
<g id="#acacacff">
<path fill="#acacac" opacity="1.00" d=" M 45.69 30.00 C 94.35 30.05 143.01 29.90 191.66 30.07 C 194.15 32.57 197.27 34.56 200.95 34.24 C 240.63 34.28 280.32 34.27 320.01 34.24 C 323.69 34.55 326.85 32.60 329.32 30.08 C 377.98 29.89 426.64 30.05 475.30 30.00 C 475.35 141.34 475.30 252.69 475.32 364.03 C 475.37 406.00 475.19 447.96 475.46 489.93 C 426.75 490.05 378.03 490.05 329.32 489.92 C 326.83 487.39 323.68 485.43 319.99 485.76 C 280.31 485.74 240.63 485.73 200.95 485.76 C 197.28 485.44 194.15 487.41 191.69 489.92 C 142.98 490.07 94.28 490.02 45.57 489.95 C 45.84 394.63 45.62 299.31 45.69 204.00 C 45.83 146.00 45.59 88.00 45.69 30.00 Z" />
</g>
</svg>
